<svg width="30" height="30" viewBox="0 0 30 30" fill="none" xmlns="http://www.w3.org/2000/svg">
<path d="M6.75 26C5.99375 26 5.34635 25.7307 4.80781 25.1922C4.26927 24.6536 4 24.0063 4 23.25C4 22.4937 4.26927 21.8464 4.80781 21.3078C5.34635 20.7693 5.99375 20.5 6.75 20.5C7.50625 20.5 8.15365 20.7693 8.69219 21.3078C9.23073 21.8464 9.5 22.4937 9.5 23.25C9.5 24.0063 9.23073 24.6536 8.69219 25.1922C8.15365 25.7307 7.50625 26 6.75 26ZM15 26C14.2437 26 13.5964 25.7307 13.0578 25.1922C12.5193 24.6536 12.25 24.0063 12.25 23.25C12.25 22.4937 12.5193 21.8464 13.0578 21.3078C13.5964 20.7693 14.2437 20.5 15 20.5C15.7563 20.5 16.4036 20.7693 16.9422 21.3078C17.4807 21.8464 17.75 22.4937 17.75 23.25C17.75 24.0063 17.4807 24.6536 16.9422 25.1922C16.4036 25.7307 15.7563 26 15 26ZM23.25 26C22.4937 26 21.8464 25.7307 21.3078 25.1922C20.7693 24.6536 20.5 24.0063 20.5 23.25C20.5 22.4937 20.7693 21.8464 21.3078 21.3078C21.8464 20.7693 22.4937 20.5 23.25 20.5C24.0063 20.5 24.6536 20.7693 25.1922 21.3078C25.7307 21.8464 26 22.4937 26 23.25C26 24.0063 25.7307 24.6536 25.1922 25.1922C24.6536 25.7307 24.0063 26 23.25 26ZM6.75 17.75C5.99375 17.75 5.34635 17.4807 4.80781 16.9422C4.26927 16.4036 4 15.7563 4 15C4 14.2437 4.26927 13.5964 4.80781 13.0578C5.34635 12.5193 5.99375 12.25 6.75 12.25C7.50625 12.25 8.15365 12.5193 8.69219 13.0578C9.23073 13.5964 9.5 14.2437 9.5 15C9.5 15.7563 9.23073 16.4036 8.69219 16.9422C8.15365 17.4807 7.50625 17.75 6.75 17.75ZM15 17.75C14.2437 17.75 13.5964 17.4807 13.0578 16.9422C12.5193 16.4036 12.25 15.7563 12.25 15C12.25 14.2437 12.5193 13.5964 13.0578 13.0578C13.5964 12.5193 14.2437 12.25 15 12.25C15.7563 12.25 16.4036 12.5193 16.9422 13.0578C17.4807 13.5964 17.75 14.2437 17.75 15C17.75 15.7563 17.4807 16.4036 16.9422 16.9422C16.4036 17.4807 15.7563 17.75 15 17.75ZM23.25 17.75C22.4937 17.75 21.8464 17.4807 21.3078 16.9422C20.7693 16.4036 20.5 15.7563 20.5 15C20.5 14.2437 20.7693 13.5964 21.3078 13.0578C21.8464 12.5193 22.4937 12.25 23.25 12.25C24.0063 12.25 24.6536 12.5193 25.1922 13.0578C25.7307 13.5964 26 14.2437 26 15C26 15.7563 25.7307 16.4036 25.1922 16.9422C24.6536 17.4807 24.0063 17.75 23.25 17.75ZM6.75 9.5C5.99375 9.5 5.34635 9.23073 4.80781 8.69219C4.26927 8.15365 4 7.50625 4 6.75C4 5.99375 4.26927 5.34635 4.80781 4.80781C5.34635 4.26927 5.99375 4 6.75 4C7.50625 4 8.15365 4.26927 8.69219 4.80781C9.23073 5.34635 9.5 5.99375 9.5 6.75C9.5 7.50625 9.23073 8.15365 8.69219 8.69219C8.15365 9.23073 7.50625 9.5 6.75 9.5ZM15 9.5C14.2437 9.5 13.5964 9.23073 13.0578 8.69219C12.5193 8.15365 12.25 7.50625 12.25 6.75C12.25 5.99375 12.5193 5.34635 13.0578 4.80781C13.5964 4.26927 14.2437 4 15 4C15.7563 4 16.4036 4.26927 16.9422 4.80781C17.4807 5.34635 17.75 5.99375 17.75 6.75C17.75 7.50625 17.4807 8.15365 16.9422 8.69219C16.4036 9.23073 15.7563 9.5 15 9.5ZM23.25 9.5C22.4937 9.5 21.8464 9.23073 21.3078 8.69219C20.7693 8.15365 20.5 7.50625 20.5 6.75C20.5 5.99375 20.7693 5.34635 21.3078 4.80781C21.8464 4.26927 22.4937 4 23.25 4C24.0063 4 24.6536 4.26927 25.1922 4.80781C25.7307 5.34635 26 5.99375 26 6.75C26 7.50625 25.7307 8.15365 25.1922 8.69219C24.6536 9.23073 24.0063 9.5 23.25 9.5Z" fill="#FF9934"/>
</svg>
