<svg width="30" height="30" viewBox="0 0 30 30" fill="none" xmlns="http://www.w3.org/2000/svg">
<mask id="mask0_82_509" style="mask-type:alpha" maskUnits="userSpaceOnUse" x="3" y="3" width="24" height="24">
<rect x="3" y="3" width="24" height="24" fill="#D9D9D9"/>
</mask>
<g mask="url(#mask0_82_509)">
<path d="M11 12V10H20V12H11ZM11 15V13H20C20 13 20 13.5 19 14C18 14.5 18 15 18 15H11ZM14 25H8C7.16667 25 6.45833 24.7083 5.875 24.125C5.29167 23.5417 5 22.8333 5 22V19H8V5H23V14.4114C22 14 23 14.4114 22 14C22 14 22 14 21 13.6143V7H10V19H16L14 21H7V22C7 22.2833 7.09583 22.5208 7.2875 22.7125C7.47917 22.9042 7.71667 23 8 23H14V25Z" fill="#FF9934"/>
<path d="M21.7447 20.3578H25.5745C25.8085 20.3578 26 20.5394 26 20.7615V24.5963C26 24.8183 25.8085 25 25.5745 25H16.2128C15.9787 25 15.7872 24.8183 15.7872 24.5963V20.7615C15.7872 20.5394 15.9787 20.3578 16.2128 20.3578H20.0426V19.4344C18.8112 19.0862 17.9149 18.0039 17.9149 16.7248C17.9149 15.1631 19.2473 13.8991 20.8936 13.8991C22.5399 13.8991 23.8723 15.1631 23.8723 16.7248C23.8723 18.0064 22.9761 19.0862 21.7447 19.4344V20.3578Z" fill="#FF9934"/>
</g>
</svg>
