<svg width="30" height="30" viewBox="0 0 30 30" fill="none" xmlns="http://www.w3.org/2000/svg">
<path d="M15 23.5556C16.375 23.5556 17.5521 23.0769 18.5312 22.1194C19.5104 21.162 20 20.0111 20 18.6667V13.7778C20 12.4333 19.5104 11.2824 18.5312 10.325C17.5521 9.36759 16.375 8.88889 15 8.88889C13.625 8.88889 12.4479 9.36759 11.4688 10.325C10.4896 11.2824 10 12.4333 10 13.7778V18.6667C10 20.0111 10.4896 21.162 11.4688 22.1194C12.4479 23.0769 13.625 23.5556 15 23.5556ZM12.5 19.8889H17.5V17.4444H12.5V19.8889ZM12.5 15H17.5V12.5556H12.5V15ZM15 26C13.6458 26 12.3906 25.6741 11.2344 25.0222C10.0781 24.3704 9.16667 23.4741 8.5 22.3333H5V19.8889H7.625C7.5625 19.4815 7.52604 19.0741 7.51562 18.6667C7.50521 18.2593 7.5 17.8519 7.5 17.4444H5V15H7.5C7.5 14.5926 7.50521 14.1852 7.51562 13.7778C7.52604 13.3704 7.5625 12.963 7.625 12.5556H5V10.1111H8.5C8.79167 9.64259 9.11979 9.20463 9.48438 8.79722C9.84896 8.38981 10.2708 8.03333 10.75 7.72778L8.75 5.71111L10.5 4L13.1875 6.62778C13.7708 6.44444 14.3646 6.35278 14.9688 6.35278C15.5729 6.35278 16.1667 6.44444 16.75 6.62778L19.5 4L21.25 5.71111L19.1875 7.72778C19.6667 8.03333 20.099 8.38472 20.4844 8.78194C20.8698 9.17917 21.2083 9.62222 21.5 10.1111H25V12.5556H22.375C22.4375 12.963 22.474 13.3704 22.4844 13.7778C22.4948 14.1852 22.5 14.5926 22.5 15H25V17.4444H22.5C22.5 17.8519 22.4948 18.2593 22.4844 18.6667C22.474 19.0741 22.4375 19.4815 22.375 19.8889H25V22.3333H21.5C20.8333 23.4741 19.9219 24.3704 18.7656 25.0222C17.6094 25.6741 16.3542 26 15 26Z" fill="#FF9934"/>
</svg>
