<svg width="30" height="30" viewBox="0 0 30 30" fill="none" xmlns="http://www.w3.org/2000/svg">
<path d="M8 25C7.45 25 6.97917 24.8042 6.5875 24.4125C6.19583 24.0208 6 23.55 6 23V9C6 8.45 6.19583 7.97917 6.5875 7.5875C6.97917 7.19583 7.45 7 8 7H12.2C12.4167 6.4 12.7792 5.91667 13.2875 5.55C13.7958 5.18333 14.3667 5 15 5C15.6333 5 16.2042 5.18333 16.7125 5.55C17.2208 5.91667 17.5833 6.4 17.8 7H22C22.55 7 23.0208 7.19583 23.4125 7.5875C23.8042 7.97917 24 8.45 24 9V23C24 23.55 23.8042 24.0208 23.4125 24.4125C23.0208 24.8042 22.55 25 22 25H8ZM8 23H22V9H8V23ZM10 21H17V19H10V21ZM10 17H20V15H10V17ZM10 13H20V11H10V13ZM15 8.25C15.2167 8.25 15.3958 8.17917 15.5375 8.0375C15.6792 7.89583 15.75 7.71667 15.75 7.5C15.75 7.28333 15.6792 7.10417 15.5375 6.9625C15.3958 6.82083 15.2167 6.75 15 6.75C14.7833 6.75 14.6042 6.82083 14.4625 6.9625C14.3208 7.10417 14.25 7.28333 14.25 7.5C14.25 7.71667 14.3208 7.89583 14.4625 8.0375C14.6042 8.17917 14.7833 8.25 15 8.25Z" fill="#FF9934"/>
</svg>
