<svg width="30" height="30" viewBox="0 0 30 30" fill="none" xmlns="http://www.w3.org/2000/svg">
<path d="M5.4 25C4.74 25 4.175 24.7552 3.705 24.2656C3.235 23.776 3 23.1875 3 22.5V7.5C3 6.8125 3.235 6.22396 3.705 5.73438C4.175 5.24479 4.74 5 5.4 5H24.6C25.26 5 25.825 5.24479 26.295 5.73438C26.765 6.22396 27 6.8125 27 7.5V22.5C27 23.1875 26.765 23.776 26.295 24.2656C25.825 24.7552 25.26 25 24.6 25H5.4ZM15 16.25L5.4 10V22.5H24.6V10L15 16.25ZM15 13.75L24.6 7.5H5.4L15 13.75ZM5.4 10V7.5V22.5V10Z" fill="#FF9934"/>
</svg>
