<svg width="22" height="7" viewBox="0 0 22 7" fill="none" xmlns="http://www.w3.org/2000/svg">
<path d="M2.75 6.5C1.99375 6.5 1.34635 6.20625 0.807813 5.61875C0.269271 5.03125 0 4.325 0 3.5C0 2.675 0.269271 1.96875 0.807813 1.38125C1.34635 0.79375 1.99375 0.5 2.75 0.5C3.50625 0.5 4.15365 0.79375 4.69219 1.38125C5.23073 1.96875 5.5 2.675 5.5 3.5C5.5 4.325 5.23073 5.03125 4.69219 5.61875C4.15365 6.20625 3.50625 6.5 2.75 6.5ZM11 6.5C10.2437 6.5 9.59635 6.20625 9.05781 5.61875C8.51927 5.03125 8.25 4.325 8.25 3.5C8.25 2.675 8.51927 1.96875 9.05781 1.38125C9.59635 0.79375 10.2437 0.5 11 0.5C11.7563 0.5 12.4036 0.79375 12.9422 1.38125C13.4807 1.96875 13.75 2.675 13.75 3.5C13.75 4.325 13.4807 5.03125 12.9422 5.61875C12.4036 6.20625 11.7563 6.5 11 6.5ZM19.25 6.5C18.4937 6.5 17.8464 6.20625 17.3078 5.61875C16.7693 5.03125 16.5 4.325 16.5 3.5C16.5 2.675 16.7693 1.96875 17.3078 1.38125C17.8464 0.79375 18.4937 0.5 19.25 0.5C20.0063 0.5 20.6536 0.79375 21.1922 1.38125C21.7307 1.96875 22 2.675 22 3.5C22 4.325 21.7307 5.03125 21.1922 5.61875C20.6536 6.20625 20.0063 6.5 19.25 6.5Z" fill="#475569"/>
</svg>
