<svg width="115" height="26" viewBox="0 0 115 26" fill="none" xmlns="http://www.w3.org/2000/svg">
<rect x="0.5" y="1" width="114" height="24" rx="4.5" fill="#E6F4FF"/>
<rect x="0.5" y="1" width="114" height="24" rx="4.5" stroke="#1677FF"/>
<path d="M16.358 11.698C16.358 12.1087 16.259 12.4937 16.061 12.853C15.8703 13.2123 15.566 13.502 15.148 13.722C14.7373 13.942 14.2167 14.052 13.586 14.052H12.299V17H10.759V9.322H13.586C14.18 9.322 14.686 9.42467 15.104 9.63C15.522 9.83533 15.8337 10.1177 16.039 10.477C16.2517 10.8363 16.358 11.2433 16.358 11.698ZM13.52 12.809C13.9453 12.809 14.2607 12.7137 14.466 12.523C14.6713 12.325 14.774 12.05 14.774 11.698C14.774 10.95 14.356 10.576 13.52 10.576H12.299V12.809H13.52ZM23.6164 13.821C23.6164 14.041 23.6017 14.239 23.5724 14.415H19.1174C19.154 14.855 19.308 15.1997 19.5794 15.449C19.8507 15.6983 20.1844 15.823 20.5804 15.823C21.1524 15.823 21.5594 15.5773 21.8014 15.086H23.4624C23.2864 15.6727 22.949 16.1567 22.4504 16.538C21.9517 16.912 21.3394 17.099 20.6134 17.099C20.0267 17.099 19.4987 16.9707 19.0294 16.714C18.5674 16.45 18.2044 16.0797 17.9404 15.603C17.6837 15.1263 17.5554 14.5763 17.5554 13.953C17.5554 13.3223 17.6837 12.7687 17.9404 12.292C18.197 11.8153 18.5564 11.4487 19.0184 11.192C19.4804 10.9353 20.012 10.807 20.6134 10.807C21.1927 10.807 21.7097 10.9317 22.1644 11.181C22.6264 11.4303 22.982 11.786 23.2314 12.248C23.488 12.7027 23.6164 13.227 23.6164 13.821ZM22.0214 13.381C22.014 12.985 21.871 12.6697 21.5924 12.435C21.3137 12.193 20.9727 12.072 20.5694 12.072C20.188 12.072 19.8654 12.1893 19.6014 12.424C19.3447 12.6513 19.187 12.9703 19.1284 13.381H22.0214ZM28.6174 10.818C29.3434 10.818 29.9301 11.049 30.3774 11.511C30.8248 11.9657 31.0484 12.6037 31.0484 13.425V17H29.5084V13.634C29.5084 13.15 29.3874 12.7797 29.1454 12.523C28.9034 12.259 28.5734 12.127 28.1554 12.127C27.7301 12.127 27.3928 12.259 27.1434 12.523C26.9014 12.7797 26.7804 13.15 26.7804 13.634V17H25.2404V10.906H26.7804V11.665C26.9858 11.401 27.2461 11.1957 27.5614 11.049C27.8841 10.895 28.2361 10.818 28.6174 10.818ZM32.6169 13.931C32.6169 13.315 32.7379 12.7687 32.9799 12.292C33.2292 11.8153 33.5666 11.4487 33.9919 11.192C34.4172 10.9353 34.8902 10.807 35.4109 10.807C35.8069 10.807 36.1846 10.895 36.5439 11.071C36.9032 11.2397 37.1892 11.467 37.4019 11.753V8.86H38.9639V17H37.4019V16.098C37.2112 16.3987 36.9436 16.6407 36.5989 16.824C36.2542 17.0073 35.8546 17.099 35.3999 17.099C34.8866 17.099 34.4172 16.967 33.9919 16.703C33.5666 16.439 33.2292 16.0687 32.9799 15.592C32.7379 15.108 32.6169 14.5543 32.6169 13.931ZM37.4129 13.953C37.4129 13.579 37.3396 13.26 37.1929 12.996C37.0462 12.7247 36.8482 12.5193 36.5989 12.38C36.3496 12.2333 36.0819 12.16 35.7959 12.16C35.5099 12.16 35.2459 12.2297 35.0039 12.369C34.7619 12.5083 34.5639 12.7137 34.4099 12.985C34.2632 13.249 34.1899 13.5643 34.1899 13.931C34.1899 14.2977 34.2632 14.6203 34.4099 14.899C34.5639 15.1703 34.7619 15.3793 35.0039 15.526C35.2532 15.6727 35.5172 15.746 35.7959 15.746C36.0819 15.746 36.3496 15.6763 36.5989 15.537C36.8482 15.3903 37.0462 15.185 37.1929 14.921C37.3396 14.6497 37.4129 14.327 37.4129 13.953ZM41.749 10.18C41.4777 10.18 41.2503 10.0957 41.067 9.927C40.891 9.751 40.803 9.53467 40.803 9.278C40.803 9.02133 40.891 8.80867 41.067 8.64C41.2503 8.464 41.4777 8.376 41.749 8.376C42.0203 8.376 42.244 8.464 42.42 8.64C42.6033 8.80867 42.695 9.02133 42.695 9.278C42.695 9.53467 42.6033 9.751 42.42 9.927C42.244 10.0957 42.0203 10.18 41.749 10.18ZM42.508 10.906V17H40.968V10.906H42.508ZM47.9065 10.818C48.6325 10.818 49.2192 11.049 49.6665 11.511C50.1138 11.9657 50.3375 12.6037 50.3375 13.425V17H48.7975V13.634C48.7975 13.15 48.6765 12.7797 48.4345 12.523C48.1925 12.259 47.8625 12.127 47.4445 12.127C47.0192 12.127 46.6818 12.259 46.4325 12.523C46.1905 12.7797 46.0695 13.15 46.0695 13.634V17H44.5295V10.906H46.0695V11.665C46.2748 11.401 46.5352 11.1957 46.8505 11.049C47.1732 10.895 47.5252 10.818 47.9065 10.818ZM54.689 10.807C55.1436 10.807 55.5433 10.8987 55.888 11.082C56.2326 11.258 56.504 11.489 56.702 11.775V10.906H58.253V17.044C58.253 17.6087 58.1393 18.111 57.912 18.551C57.6846 18.9983 57.3436 19.3503 56.889 19.607C56.4343 19.871 55.8843 20.003 55.239 20.003C54.3736 20.003 53.6623 19.8013 53.105 19.398C52.555 18.9947 52.2433 18.4447 52.17 17.748H53.699C53.7796 18.0267 53.952 18.2467 54.216 18.408C54.4873 18.5767 54.8136 18.661 55.195 18.661C55.6423 18.661 56.0053 18.5253 56.284 18.254C56.5626 17.99 56.702 17.5867 56.702 17.044V16.098C56.504 16.384 56.229 16.6223 55.877 16.813C55.5323 17.0037 55.1363 17.099 54.689 17.099C54.1756 17.099 53.7063 16.967 53.281 16.703C52.8556 16.439 52.5183 16.0687 52.269 15.592C52.027 15.108 51.906 14.5543 51.906 13.931C51.906 13.315 52.027 12.7687 52.269 12.292C52.5183 11.8153 52.852 11.4487 53.27 11.192C53.6953 10.9353 54.1683 10.807 54.689 10.807ZM56.702 13.953C56.702 13.579 56.6286 13.26 56.482 12.996C56.3353 12.7247 56.1373 12.5193 55.888 12.38C55.6386 12.2333 55.371 12.16 55.085 12.16C54.799 12.16 54.535 12.2297 54.293 12.369C54.051 12.5083 53.853 12.7137 53.699 12.985C53.5523 13.249 53.479 13.5643 53.479 13.931C53.479 14.2977 53.5523 14.6203 53.699 14.899C53.853 15.1703 54.051 15.3793 54.293 15.526C54.5423 15.6727 54.8063 15.746 55.085 15.746C55.371 15.746 55.6386 15.6763 55.888 15.537C56.1373 15.3903 56.3353 15.185 56.482 14.921C56.6286 14.6497 56.702 14.327 56.702 13.953ZM67.3381 17L65.6441 14.008H64.9181V17H63.3781V9.322H66.2601C66.8541 9.322 67.3601 9.42833 67.7781 9.641C68.1961 9.84633 68.5078 10.1287 68.7131 10.488C68.9258 10.84 69.0321 11.236 69.0321 11.676C69.0321 12.182 68.8855 12.6403 68.5921 13.051C68.2988 13.4543 67.8625 13.733 67.2831 13.887L69.1201 17H67.3381ZM64.9181 12.853H66.2051C66.6231 12.853 66.9348 12.754 67.1401 12.556C67.3455 12.3507 67.4481 12.0683 67.4481 11.709C67.4481 11.357 67.3455 11.0857 67.1401 10.895C66.9348 10.697 66.6231 10.598 66.2051 10.598H64.9181V12.853ZM76.59 13.821C76.59 14.041 76.5753 14.239 76.546 14.415H72.091C72.1277 14.855 72.2817 15.1997 72.553 15.449C72.8243 15.6983 73.158 15.823 73.554 15.823C74.126 15.823 74.533 15.5773 74.775 15.086H76.436C76.26 15.6727 75.9227 16.1567 75.424 16.538C74.9253 16.912 74.313 17.099 73.587 17.099C73.0003 17.099 72.4723 16.9707 72.003 16.714C71.541 16.45 71.178 16.0797 70.914 15.603C70.6573 15.1263 70.529 14.5763 70.529 13.953C70.529 13.3223 70.6573 12.7687 70.914 12.292C71.1707 11.8153 71.53 11.4487 71.992 11.192C72.454 10.9353 72.9857 10.807 73.587 10.807C74.1663 10.807 74.6833 10.9317 75.138 11.181C75.6 11.4303 75.9557 11.786 76.205 12.248C76.4617 12.7027 76.59 13.227 76.59 13.821ZM74.995 13.381C74.9877 12.985 74.8447 12.6697 74.566 12.435C74.2873 12.193 73.9463 12.072 73.543 12.072C73.1617 12.072 72.839 12.1893 72.575 12.424C72.3183 12.6513 72.1607 12.9703 72.102 13.381H74.995ZM80.7551 15.581L82.2951 10.906H83.9341L81.6791 17H79.8091L77.5651 10.906H79.2151L80.7551 15.581ZM86.08 10.18C85.8087 10.18 85.5814 10.0957 85.398 9.927C85.222 9.751 85.134 9.53467 85.134 9.278C85.134 9.02133 85.222 8.80867 85.398 8.64C85.5814 8.464 85.8087 8.376 86.08 8.376C86.3514 8.376 86.575 8.464 86.751 8.64C86.9344 8.80867 87.026 9.02133 87.026 9.278C87.026 9.53467 86.9344 9.751 86.751 9.927C86.575 10.0957 86.3514 10.18 86.08 10.18ZM86.839 10.906V17H85.299V10.906H86.839ZM94.5256 13.821C94.5256 14.041 94.5109 14.239 94.4816 14.415H90.0266C90.0632 14.855 90.2172 15.1997 90.4886 15.449C90.7599 15.6983 91.0936 15.823 91.4896 15.823C92.0616 15.823 92.4686 15.5773 92.7106 15.086H94.3716C94.1956 15.6727 93.8582 16.1567 93.3596 16.538C92.8609 16.912 92.2486 17.099 91.5226 17.099C90.9359 17.099 90.4079 16.9707 89.9386 16.714C89.4766 16.45 89.1136 16.0797 88.8496 15.603C88.5929 15.1263 88.4646 14.5763 88.4646 13.953C88.4646 13.3223 88.5929 12.7687 88.8496 12.292C89.1062 11.8153 89.4656 11.4487 89.9276 11.192C90.3896 10.9353 90.9212 10.807 91.5226 10.807C92.1019 10.807 92.6189 10.9317 93.0736 11.181C93.5356 11.4303 93.8912 11.786 94.1406 12.248C94.3972 12.7027 94.5256 13.227 94.5256 13.821ZM92.9306 13.381C92.9232 12.985 92.7802 12.6697 92.5016 12.435C92.2229 12.193 91.8819 12.072 91.4786 12.072C91.0972 12.072 90.7746 12.1893 90.5106 12.424C90.2539 12.6513 90.0962 12.9703 90.0376 13.381H92.9306ZM104.598 10.906L102.816 17H101.155L100.044 12.743L98.9326 17H97.2606L95.4676 10.906H97.0296L98.1076 15.548L99.2736 10.906H100.902L102.046 15.537L103.124 10.906H104.598Z" fill="#1677FF"/>
</svg>
