<svg width="30" height="30" viewBox="0 0 30 30" fill="none" xmlns="http://www.w3.org/2000/svg">
<path d="M7.22222 25C6.61111 25 6.08796 24.7824 5.65278 24.3472C5.21759 23.912 5 23.3889 5 22.7778V7.22222C5 6.61111 5.21759 6.08796 5.65278 5.65278C6.08796 5.21759 6.61111 5 7.22222 5H22.7778C23.3889 5 23.912 5.21759 24.3472 5.65278C24.7824 6.08796 25 6.61111 25 7.22222V22.7778C25 23.3889 24.7824 23.912 24.3472 24.3472C23.912 24.7824 23.3889 25 22.7778 25H7.22222ZM7.22222 22.7778H22.7778V19.4444H19.4444C18.8889 20.1481 18.2269 20.6944 17.4583 21.0833C16.6898 21.4722 15.8704 21.6667 15 21.6667C14.1296 21.6667 13.3102 21.4722 12.5417 21.0833C11.7731 20.6944 11.1111 20.1481 10.5556 19.4444H7.22222V22.7778ZM15 19.4444C15.7037 19.4444 16.3426 19.2407 16.9167 18.8333C17.4907 18.4259 17.8889 17.8889 18.1111 17.2222H22.7778V7.22222H7.22222V17.2222H11.8889C12.1111 17.8889 12.5093 18.4259 13.0833 18.8333C13.6574 19.2407 14.2963 19.4444 15 19.4444Z" fill="#FF9934"/>
</svg>
