<svg width="30" height="30" viewBox="0 0 30 30" fill="none" xmlns="http://www.w3.org/2000/svg">
<path d="M8.235 20.61C9.17 19.895 10.215 19.3313 11.37 18.9188C12.525 18.5063 13.735 18.3 15 18.3C16.265 18.3 17.475 18.5063 18.63 18.9188C19.785 19.3313 20.83 19.895 21.765 20.61C22.4067 19.8583 22.9063 19.0058 23.2638 18.0525C23.6213 17.0992 23.8 16.0817 23.8 15C23.8 12.5617 22.9429 10.4854 21.2288 8.77125C19.5146 7.05708 17.4383 6.2 15 6.2C12.5617 6.2 10.4854 7.05708 8.77125 8.77125C7.05708 10.4854 6.2 12.5617 6.2 15C6.2 16.0817 6.37875 17.0992 6.73625 18.0525C7.09375 19.0058 7.59333 19.8583 8.235 20.61ZM15 16.1C13.9183 16.1 13.0063 15.7288 12.2638 14.9863C11.5213 14.2438 11.15 13.3317 11.15 12.25C11.15 11.1683 11.5213 10.2563 12.2638 9.51375C13.0063 8.77125 13.9183 8.4 15 8.4C16.0817 8.4 16.9938 8.77125 17.7363 9.51375C18.4788 10.2563 18.85 11.1683 18.85 12.25C18.85 13.3317 18.4788 14.2438 17.7363 14.9863C16.9938 15.7288 16.0817 16.1 15 16.1ZM15 26C13.4783 26 12.0483 25.7113 10.71 25.1338C9.37167 24.5562 8.2075 23.7725 7.2175 22.7825C6.2275 21.7925 5.44375 20.6283 4.86625 19.29C4.28875 17.9517 4 16.5217 4 15C4 13.4783 4.28875 12.0483 4.86625 10.71C5.44375 9.37167 6.2275 8.2075 7.2175 7.2175C8.2075 6.2275 9.37167 5.44375 10.71 4.86625C12.0483 4.28875 13.4783 4 15 4C16.5217 4 17.9517 4.28875 19.29 4.86625C20.6283 5.44375 21.7925 6.2275 22.7825 7.2175C23.7725 8.2075 24.5562 9.37167 25.1338 10.71C25.7113 12.0483 26 13.4783 26 15C26 16.5217 25.7113 17.9517 25.1338 19.29C24.5562 20.6283 23.7725 21.7925 22.7825 22.7825C21.7925 23.7725 20.6283 24.5562 19.29 25.1338C17.9517 25.7113 16.5217 26 15 26ZM15 23.8C15.9717 23.8 16.8883 23.6579 17.75 23.3738C18.6117 23.0896 19.4 22.6817 20.115 22.15C19.4 21.6183 18.6117 21.2104 17.75 20.9263C16.8883 20.6421 15.9717 20.5 15 20.5C14.0283 20.5 13.1117 20.6421 12.25 20.9263C11.3883 21.2104 10.6 21.6183 9.885 22.15C10.6 22.6817 11.3883 23.0896 12.25 23.3738C13.1117 23.6579 14.0283 23.8 15 23.8ZM15 13.9C15.4767 13.9 15.8708 13.7442 16.1825 13.4325C16.4942 13.1208 16.65 12.7267 16.65 12.25C16.65 11.7733 16.4942 11.3792 16.1825 11.0675C15.8708 10.7558 15.4767 10.6 15 10.6C14.5233 10.6 14.1292 10.7558 13.8175 11.0675C13.5058 11.3792 13.35 11.7733 13.35 12.25C13.35 12.7267 13.5058 13.1208 13.8175 13.4325C14.1292 13.7442 14.5233 13.9 15 13.9Z" fill="#FF9934"/>
</svg>
