<svg width="30" height="60" viewBox="0 0 30 30" fill="none" xmlns="http://www.w3.org/2000/svg">
<path d="M2 19V17.95C2 17.4722 2.39722 17.0833 3.19167 16.7833C3.98611 16.4833 5.03333 16.3333 6.33333 16.3333C6.56806 16.3333 6.79375 16.3361 7.01042 16.3417C7.22708 16.3472 7.43472 16.3611 7.63333 16.3833C7.38056 16.6167 7.19097 16.8611 7.06458 17.1167C6.93819 17.3722 6.875 17.6389 6.875 17.9167V19H2ZM8.5 19V17.9167C8.5 17.5611 8.65799 17.2361 8.97396 16.9417C9.28993 16.6472 9.73681 16.3889 10.3146 16.1667C10.8924 15.9444 11.583 15.7778 12.3865 15.6667C13.1899 15.5556 14.0611 15.5 15 15.5C15.9569 15.5 16.8372 15.5556 17.6406 15.6667C18.4441 15.7778 19.1347 15.9444 19.7125 16.1667C20.2903 16.3889 20.7326 16.6472 21.0396 16.9417C21.3465 17.2361 21.5 17.5611 21.5 17.9167V19H8.5ZM23.125 19V17.9167C23.125 17.6278 23.0663 17.3556 22.949 17.1C22.8316 16.8444 22.6556 16.6056 22.4208 16.3833C22.6194 16.3611 22.8226 16.3472 23.0302 16.3417C23.2378 16.3361 23.45 16.3333 23.6667 16.3333C24.9667 16.3333 26.0139 16.4806 26.8083 16.775C27.6028 17.0694 28 17.4611 28 17.95V19H23.125ZM10.8021 17.6667H19.225C19.0444 17.4444 18.5434 17.25 17.7219 17.0833C16.9003 16.9167 15.9931 16.8333 15 16.8333C14.0069 16.8333 13.0997 16.9167 12.2781 17.0833C11.4566 17.25 10.9646 17.4444 10.8021 17.6667ZM6.33333 15.6667C5.7375 15.6667 5.22743 15.5361 4.80313 15.275C4.37882 15.0139 4.16667 14.7 4.16667 14.3333C4.16667 13.9556 4.37882 13.6389 4.80313 13.3833C5.22743 13.1278 5.7375 13 6.33333 13C6.94722 13 7.46181 13.1278 7.87708 13.3833C8.29236 13.6389 8.5 13.9556 8.5 14.3333C8.5 14.7 8.29236 15.0139 7.87708 15.275C7.46181 15.5361 6.94722 15.6667 6.33333 15.6667ZM23.6667 15.6667C23.0708 15.6667 22.5608 15.5361 22.1365 15.275C21.7122 15.0139 21.5 14.7 21.5 14.3333C21.5 13.9556 21.7122 13.6389 22.1365 13.3833C22.5608 13.1278 23.0708 13 23.6667 13C24.2806 13 24.7951 13.1278 25.2104 13.3833C25.6257 13.6389 25.8333 13.9556 25.8333 14.3333C25.8333 14.7 25.6257 15.0139 25.2104 15.275C24.7951 15.5361 24.2806 15.6667 23.6667 15.6667ZM15 15C14.0972 15 13.3299 14.8056 12.6979 14.4167C12.066 14.0278 11.75 13.5556 11.75 13C11.75 12.4333 12.066 11.9583 12.6979 11.575C13.3299 11.1917 14.0972 11 15 11C15.9208 11 16.6927 11.1917 17.3156 11.575C17.9385 11.9583 18.25 12.4333 18.25 13C18.25 13.5556 17.9385 14.0278 17.3156 14.4167C16.6927 14.8056 15.9208 15 15 15ZM15 13.6667C15.3069 13.6667 15.5642 13.6028 15.7719 13.475C15.9795 13.3472 16.0833 13.1889 16.0833 13C16.0833 12.8111 15.9795 12.6528 15.7719 12.525C15.5642 12.3972 15.3069 12.3333 15 12.3333C14.6931 12.3333 14.4358 12.3972 14.2281 12.525C14.0205 12.6528 13.9167 12.8111 13.9167 13C13.9167 13.1889 14.0205 13.3472 14.2281 13.475C14.4358 13.6028 14.6931 13.6667 15 13.6667Z" fill="#FF9934"/>
</svg>
